<?xml version="1.0" standalone="no"?>
<!DOCTYPE svg PUBLIC "-//W3C//DTD SVG 20010904//EN"
 "http://www.w3.org/TR/2001/REC-SVG-20010904/DTD/svg10.dtd">
<svg version="1.0" xmlns="http://www.w3.org/2000/svg"
 width="512.000000pt" height="512.000000pt" viewBox="0 0 512.000000 512.000000"
 preserveAspectRatio="xMidYMid meet">

<g transform="translate(0.000000,512.000000) scale(0.100000,-0.100000)"
fill="#000000" stroke="none">
<path d="M1535 5110 c-556 -36 -989 -126 -1259 -263 -135 -69 -236 -165 -260
-248 -15 -50 -16 -215 -14 -1719 l3 -1665 24 -44 c139 -261 733 -437 1631
-484 l45 -2 5 -255 c4 -193 8 -261 19 -280 31 -55 63 -88 113 -116 l53 -29
1520 0 c1463 0 1521 1 1555 19 49 26 98 74 123 121 l22 40 0 1010 0 1010 -22
41 c-32 60 -94 111 -157 129 -45 13 -98 15 -295 13 -225 -3 -242 -4 -260 -23
-12 -11 -23 -34 -27 -52 -5 -27 -1 -37 24 -63 l30 -30 242 0 242 0 29 -29 29
-29 0 -967 0 -967 -29 -29 -29 -29 -1472 0 c-1568 0 -1516 -2 -1534 45 -3 9
-6 452 -6 983 1 744 3 971 13 983 30 39 21 39 1147 39 l1091 0 24 25 c35 34
33 78 -4 116 l-29 29 -186 0 -186 0 -2 1103 c-3 1256 6 1135 -95 1234 -188
185 -647 317 -1288 373 -169 15 -663 20 -830 10z"/>
<path d="M2458 1777 c-100 -38 -157 -88 -206 -181 -23 -44 -27 -63 -27 -141 0
-77 4 -98 26 -146 54 -114 155 -183 292 -198 85 -10 103 -18 145 -65 121 -138
-43 -340 -207 -256 -48 24 -78 71 -91 141 -12 63 -37 89 -87 89 -23 0 -42 -8
-60 -26 -23 -24 -25 -31 -21 -89 10 -115 85 -222 197 -277 67 -33 215 -33 282
0 71 35 122 84 160 154 32 58 34 69 34 153 0 76 -4 99 -26 146 -50 106 -154
182 -265 194 -100 12 -115 17 -151 48 -66 58 -80 132 -40 207 27 51 90 90 147
90 86 0 170 -83 170 -167 0 -75 92 -111 147 -57 23 23 25 31 21 88 -9 113 -75
210 -180 266 -54 29 -75 34 -143 37 -51 2 -93 -2 -117 -10z"/>
<path d="M3288 1767 c-100 -43 -167 -116 -199 -218 -17 -54 -19 -94 -19 -354
0 -265 2 -299 20 -356 45 -141 155 -228 300 -237 59 -3 89 1 138 17 l63 22 26
-21 c80 -63 177 42 113 122 -19 25 -19 25 0 77 18 47 20 78 20 376 0 303 -1
328 -21 379 -27 72 -96 148 -166 182 -81 40 -195 44 -275 11z m227 -182 c63
-47 65 -60 65 -389 l0 -294 -38 21 c-35 19 -42 19 -72 7 -54 -22 -74 -108 -31
-135 22 -13 10 -25 -24 -25 -72 0 -141 50 -164 119 -7 22 -11 130 -11 308 0
293 4 318 53 372 54 59 157 67 222 16z"/>
<path d="M3956 1769 l-26 -20 0 -554 0 -554 26 -20 c26 -20 38 -21 313 -21
275 0 288 1 309 20 29 27 37 63 20 96 -23 50 -44 54 -280 54 l-217 0 -3 486
-3 486 -28 24 c-34 29 -76 31 -111 3z"/>
</g>
</svg>
